# Blender v2.74 (sub 0) OBJ File: 'hexagon.blend'
# www.blender.org
mtllib hexagon.mtl
o Cube_Cube.001
v 1.000000 -0.523810 -0.052083
v 1.000000 0.476190 -0.052083
v 1.000000 -0.523810 0.541667
v 1.000000 0.476190 0.541667
v 0.000000 -0.523810 -0.052083
v 0.000000 0.476190 -0.052083
v 0.000000 -0.523810 1.041667
v 0.000000 0.476190 1.041667
v -1.000000 0.476190 -0.052083
v -1.000000 -0.523810 -0.052083
v -1.000000 0.476190 0.541667
v -1.000000 -0.523810 0.541667
v 0.000000 0.476190 1.041667
v 0.000000 -0.523810 1.041667
v -1.000000 -0.523810 -0.645833
v -1.000000 0.476190 -0.645833
v 0.000000 -0.523810 -1.145833
v 0.000000 0.476190 -1.145833
v 1.000000 0.476190 -0.645833
v 1.000000 -0.523810 -0.645833
v 0.000000 0.476190 -1.145833
v 0.900000 0.576190 -0.052083
v 0.900000 0.576190 0.482292
v 0.000000 0.576190 0.932292
v 0.000000 0.576190 -0.052083
v -0.900000 0.576190 0.482292
v -0.900000 0.576190 -0.052083
v 0.000000 0.576190 0.932292
v -0.900000 0.576190 -0.586458
v 0.000000 0.576190 -1.036458
v 0.000000 0.576190 -1.036458
v 0.900000 0.576190 -0.586458
vn 1.000000 0.000000 0.000000
vn 0.447200 0.000000 0.894400
vn -1.000000 0.000000 0.000000
vn 0.000000 0.000000 -1.000000
vn 0.000000 -1.000000 0.000000
vn -0.447200 0.000000 0.894400
vn -0.447200 0.000000 -0.894400
vn 0.319700 0.699300 -0.639400
vn 0.447200 0.000000 -0.894400
vn -0.707100 0.707100 0.000000
vn 0.000000 1.000000 0.000000
vn 0.707100 0.707100 0.000000
vn -0.319700 0.699300 -0.639400
vn -0.319700 0.699300 0.639400
vn 0.319700 0.699300 0.639400
usemtl None
s off
f 2//1 4//1 3//1 1//1
f 4//2 8//2 7//2 3//2
f 8//3 6//3 5//3 7//3
f 6//4 2//4 1//4 5//4
f 1//5 3//5 7//5 5//5
f 13//1 6//1 25//1 28//1
f 10//3 12//3 11//3 9//3
f 12//6 14//6 13//6 11//6
f 10//5 15//5 17//5 5//5
f 14//1 5//1 6//1 13//1
f 5//4 10//4 9//4 6//4
f 16//7 18//7 17//7 15//7
f 9//3 16//3 15//3 10//3
f 19//8 21//8 31//8 32//8
f 1//1 20//1 19//1 2//1
f 6//1 18//1 30//1 25//1
f 18//1 6//1 5//1 17//1
f 5//5 14//5 12//5 10//5
f 20//9 17//9 21//9 19//9
f 5//5 17//5 20//5 1//5
f 17//3 5//3 6//3 21//3
f 16//10 9//10 27//10 29//10
f 25//11 24//11 23//11 22//11
f 27//11 26//11 28//11 25//11
f 25//11 30//11 29//11 27//11
f 22//11 32//11 31//11 25//11
f 2//12 19//12 32//12 22//12
f 21//3 6//3 25//3 31//3
f 18//13 16//13 29//13 30//13
f 11//14 13//14 28//14 26//14
f 9//10 11//10 26//10 27//10
f 6//3 8//3 24//3 25//3
f 8//15 4//15 23//15 24//15
f 4//12 2//12 22//12 23//12
