# Blender v2.74 (sub 0) OBJ File: ''
# www.blender.org
mtllib player.mtl
o Cube
v 0.053846 0.359981 -0.034173
v 0.348125 -0.354564 -0.034173
v -0.366420 -0.354564 -0.034173
v -0.060311 0.359981 -0.034173
v 0.053846 0.359980 0.011097
v 0.348125 -0.354564 0.011097
v -0.366420 -0.354564 0.011097
v -0.060311 0.359981 0.011097
v -0.038838 0.359981 -0.034173
v -0.181894 -0.238053 -0.034173
v -0.038838 0.359980 0.011607
v -0.181895 -0.238053 0.021702
v 0.036872 0.359981 -0.034173
v 0.191759 -0.238053 -0.034173
v 0.036872 0.359980 0.011607
v 0.191759 -0.238053 0.021702
v -0.000983 0.359981 -0.034173
v 0.004932 -0.238053 -0.034173
v -0.000983 0.359980 0.012332
v 0.004932 -0.238053 0.037760
v 0.200986 0.002708 -0.034173
v -0.213365 0.002708 -0.034173
v 0.200986 0.002708 0.011097
v -0.213365 0.002708 0.011097
v -0.110366 0.060964 0.016655
v -0.110366 0.060964 -0.034173
v 0.114315 0.060964 -0.034173
v 0.114315 0.060964 0.016655
v 0.001975 0.060964 -0.034173
v 0.001975 0.060964 0.038818
v 0.278412 -0.185292 -0.034173
v 0.278412 -0.185292 0.011097
v -0.148005 -0.096382 0.019311
v 0.155067 -0.096382 0.019311
v 0.003531 -0.096382 0.045508
v -0.293904 -0.185292 -0.034173
v -0.293904 -0.185292 0.011097
v -0.148005 -0.096382 -0.034173
v 0.155067 -0.096382 -0.034173
v 0.003531 -0.096382 -0.034173
v -0.019910 0.359981 -0.034173
v -0.088481 -0.238053 -0.034173
v -0.019910 0.359980 0.011970
v -0.088481 -0.238053 0.029731
v -0.054196 0.060964 -0.034173
v -0.054196 0.060964 0.034623
v -0.072237 -0.096382 -0.034173
v -0.072237 -0.096382 0.039296
v 0.017945 0.359981 -0.034173
v 0.098346 -0.238053 -0.034173
v 0.017945 0.359980 0.011970
v 0.098345 -0.238053 0.029731
v 0.058145 0.060964 0.034623
v 0.058145 0.060964 -0.034173
v 0.079299 -0.096382 0.039296
v 0.079299 -0.096382 -0.034173
v -0.037723 0.033723 0.056574
v 0.001975 0.033723 0.060770
v 0.003531 -0.085864 0.067460
v -0.055765 -0.085864 0.061248
v 0.038770 0.033723 0.056574
v 0.059924 -0.085864 0.061248
vn 0.000000 0.000000 -1.000000
vn -0.078100 0.034400 0.996300
vn 0.924700 0.380800 0.000000
vn 0.533900 -0.845600 0.000000
vn -0.919200 0.393800 -0.000000
vn 0.000000 1.000000 0.000000
vn -0.000000 -1.000000 -0.000000
vn 0.096900 0.040800 0.994500
vn -0.597500 -0.801900 -0.000000
vn 0.077600 0.034200 0.996400
vn -0.062200 0.029000 0.997600
vn 0.092900 0.039400 0.994900
vn -0.074800 0.033300 0.996600
vn -0.163400 0.003900 0.986600
vn 0.083800 -0.054800 0.995000
vn 0.060400 0.086100 0.994500
vn -0.236200 0.086600 0.967800
vn -0.275700 0.071100 0.958600
vn -0.060400 0.084900 0.994600
vn -0.083700 -0.056400 0.994900
vn 0.275600 0.076500 0.958200
vn 0.236100 0.091300 0.967400
vn 0.163400 0.007200 0.986500
vn 0.042000 -0.893700 0.446700
vn 0.717500 0.132700 0.683800
vn 0.110800 0.057700 0.992200
vn -0.104400 0.054400 0.993000
vn 0.071200 0.610400 0.788900
vn -0.771100 0.121600 0.625000
vn -0.040900 -0.895000 0.444200
vn -0.068900 0.613300 0.786900
usemtl Material
s off
f 38//1 10//1 3//1 36//1
f 33//2 37//2 7//2 12//2
f 31//3 32//3 6//3 2//3
f 10//4 12//4 7//4 3//4
f 22//5 24//5 8//5 4//5
f 11//6 9//6 4//6 8//6
f 43//6 41//6 9//6 11//6
f 42//7 44//7 12//7 10//7
f 47//1 42//1 10//1 38//1
f 31//1 2//1 14//1 39//1
f 32//8 34//8 16//8 6//8
f 2//9 6//9 16//9 14//9
f 5//6 1//6 13//6 15//6
f 56//1 50//1 18//1 40//1
f 50//7 52//7 20//7 18//7
f 51//6 49//6 17//6 19//6
f 49//1 54//1 29//1 17//1
f 5//10 15//10 28//10 23//10
f 1//1 21//1 27//1 13//1
f 41//1 45//1 26//1 9//1
f 36//5 37//5 24//5 22//5
f 1//3 5//3 23//3 21//3
f 11//11 8//11 24//11 25//11
f 9//1 26//1 22//1 4//1
f 3//5 7//5 37//5 36//5
f 54//1 56//1 40//1 29//1
f 23//12 28//12 34//12 32//12
f 21//1 31//1 39//1 27//1
f 45//1 47//1 38//1 26//1
f 21//3 23//3 32//3 31//3
f 25//13 24//13 37//13 33//13
f 26//1 38//1 36//1 22//1
f 29//1 40//1 47//1 45//1
f 17//1 29//1 45//1 41//1
f 40//1 18//1 42//1 47//1
f 18//7 20//7 44//7 42//7
f 19//6 17//6 41//6 43//6
f 27//1 39//1 56//1 54//1
f 13//1 27//1 54//1 49//1
f 15//6 13//6 49//6 51//6
f 14//7 16//7 52//7 50//7
f 39//1 14//1 50//1 56//1
usemtl Material001
f 48//14 33//14 12//14 44//14
f 55//15 35//15 20//15 52//15
f 51//16 19//16 30//16 53//16
f 43//17 11//17 25//17 46//17
f 46//18 25//18 33//18 48//18
f 19//19 43//19 46//19 30//19
f 35//20 48//20 44//20 20//20
f 28//21 53//21 55//21 34//21
f 15//22 51//22 53//22 28//22
f 34//23 55//23 52//23 16//23
usemtl Material002
f 35//24 55//24 62//24 59//24
f 55//25 53//25 61//25 62//25
f 61//26 58//26 59//26 62//26
f 58//27 57//27 60//27 59//27
f 53//28 30//28 58//28 61//28
f 46//29 48//29 60//29 57//29
f 48//30 35//30 59//30 60//30
f 30//31 46//31 57//31 58//31
